<svg width="11" height="8" viewBox="0 0 11 8" fill="none" xmlns="http://www.w3.org/2000/svg">
<path d="M3.87438 5.46535L9.18473 0.290429C9.38341 0.0968093 9.63629 0 9.94335 0C10.2504 0 10.5033 0.0968093 10.702 0.290429C10.9007 0.484048 11 0.730472 11 1.0297C11 1.32893 10.9007 1.57536 10.702 1.76898L4.633 7.68317C4.41626 7.89439 4.16338 8 3.87438 8C3.58539 8 3.33251 7.89439 3.11576 7.68317L0.298029 4.93729C0.0993428 4.74367 0 4.49725 0 4.19802C0 3.89879 0.0993428 3.65236 0.298029 3.45875C0.496716 3.26513 0.749589 3.16832 1.05665 3.16832C1.36371 3.16832 1.61658 3.26513 1.81527 3.45875L3.87438 5.46535Z" fill="white"/>
</svg>
